# xmcd
#
# Track frame offsets:
#	150
#	14340
#	27870
#	41077
#	54715
#	69087
#	81165
#	97207
#	112855
#	126692
#	137195
#	151260
#	163407
#	177095
#	190737
#	206022
#	221532
#	234865
#	248137
#	263082
#	275692
#	291127
#	304627
#	319057
#
# Disc length: 4406 seconds
#
# Revision: 1
# Processed by: cddbd v1.5.1PL0 Copyright (c) Steve Scherf et al.
# Submitted via: audiograbber 1.82.01
#
DISCID=5d113418
DTITLE=John Lee Hooker - King of Boogie
DYEAR=1999
DGENRE=Blues
TTITLE0=Boogie Chillen
TTITLE1=Crawlin Kingsnake
TTITLE2=Hoogie Boogie
TTITLE3=Hobo Blues
TTITLE4=Sally Mae
TTITLE5=Miss Eloise
TTITLE6=Lowdown Midnight Boogie
TTITLE7=Grievin' Blues
TTITLE8=Alberta
TTITLE9=Hastings Street Boogie
TTITLE10=Whistlin' and Moanin' Blues
TTITLE11=Burnin' Hell
TTITLE12=Highway Blues
TTITLE13=Miss Rosie Mae
TTITLE14=Like a Woman
TTITLE15=Goin' Home Blues
TTITLE16=Build Myself a Cave
TTITLE17=Momma Poppa Boogie
TTITLE18=Shady Grove Blues
TTITLE19=Graveyard Blues
TTITLE20=Landing Blues
TTITLE21=Shake Your Boogie
TTITLE22=Do the Boogie
TTITLE23=Twister Blues
EXTD=
EXTT0=
EXTT1=
EXTT2=
EXTT3=
EXTT4=
EXTT5=
EXTT6=
EXTT7=
EXTT8=
EXTT9=
EXTT10=
EXTT11=
EXTT12=
EXTT13=
EXTT14=
EXTT15=
EXTT16=
EXTT17=
EXTT18=
EXTT19=
EXTT20=
EXTT21=
EXTT22=
EXTT23=
PLAYORDER=
